<?xml version="1.0" encoding="UTF-8" standalone="no"?>
<!-- Generator: Adobe Illustrator 21.0.0, SVG Export Plug-In . SVG Version: 6.00 Build 0)  -->

<svg
   xmlns:dc="http://purl.org/dc/elements/1.1/"
   xmlns:cc="http://creativecommons.org/ns#"
   xmlns:rdf="http://www.w3.org/1999/02/22-rdf-syntax-ns#"
   xmlns:svg="http://www.w3.org/2000/svg"
   xmlns="http://www.w3.org/2000/svg"
   xmlns:sodipodi="http://sodipodi.sourceforge.net/DTD/sodipodi-0.dtd"
   xmlns:inkscape="http://www.inkscape.org/namespaces/inkscape"
   version="1.1"
   id="Layer_1"
   x="0px"
   y="0px"
   viewBox="0 0 209.89999 28.700001"
   enable-background="new 0 0 263 88"
   xml:space="preserve"
   inkscape:version="0.91 r13725"
   sodipodi:docname="sales_express_logo.svg"
   width="209.89999"
   height="28.700001"><metadata
     id="metadata3367"><rdf:RDF><cc:Work
         rdf:about=""><dc:format>image/svg+xml</dc:format><dc:type
           rdf:resource="http://purl.org/dc/dcmitype/StillImage" /><dc:title></dc:title></cc:Work></rdf:RDF></metadata><defs
     id="defs3365" /><sodipodi:namedview
     pagecolor="#000000"
     bordercolor="#666666"
     borderopacity="1"
     objecttolerance="10"
     gridtolerance="10"
     guidetolerance="10"
     inkscape:pageopacity="0"
     inkscape:pageshadow="2"
     inkscape:window-width="1920"
     inkscape:window-height="1018"
     id="namedview3363"
     showgrid="false"
     fit-margin-top="0"
     fit-margin-left="0"
     fit-margin-right="0"
     fit-margin-bottom="0"
     inkscape:zoom="6.1140684"
     inkscape:cx="103.04104"
     inkscape:cy="44"
     inkscape:window-x="-8"
     inkscape:window-y="760"
     inkscape:window-maximized="1"
     inkscape:current-layer="layer1" /><g
     inkscape:groupmode="layer"
     id="layer1"
     inkscape:label="layer"
     transform="translate(0,-59.3)"><g
       transform="translate(-34.1,22.3)"
       id="g3337"
       style="fill:#ffffff;fill-opacity:1"><path
         inkscape:connector-curvature="0"
         d="m 34.1,55.6 c 0,-1.6 2.1,-3.4 2.3,-3.3 1.4,1.3 4.2,2.6 6.6,2.6 2.1,0 3.1,-0.6 3.1,-1.7 0,-1.4 -1.8,-1.4 -4,-1.9 -3.7,-0.8 -7.4,-2.3 -7.4,-6.9 0,-4.6 3.4,-7.4 9.5,-7.4 5.8,0 8.4,2 8.4,4.2 0,1.9 -2.3,3.6 -2.4,3.4 -1.5,-1.4 -3.8,-2.4 -5.9,-2.4 -2,0 -3,0.6 -3,1.7 0,1.3 1.8,1.2 4.1,1.7 4.4,1 7.7,2.8 7.7,6.9 0,4.8 -3.3,7.5 -10,7.5 -6.7,0.2 -9,-2.1 -9,-4.4 z"
         id="path3339"
         style="fill:#ffffff;fill-opacity:1" /><path
         inkscape:connector-curvature="0"
         d="m 68.5,55.6 -7.2,0 -1.7,4.6 -6.9,0 7.9,-20.5 c 0.3,-1.1 1.3,-1.9 4.4,-1.9 3.1,0 3.9,0.8 4.3,1.9 l 8.3,20.5 -7.2,0 -1.9,-4.6 z m -6,-5 4.8,0 -2.4,-6.4 -2.4,6.4 z"
         id="path3341"
         style="fill:#ffffff;fill-opacity:1" /><path
         inkscape:connector-curvature="0"
         d="m 77.9,41 c 0,-2.2 1,-3.2 2.9,-3.2 l 1,0 c 2,0 3,1 3,3.2 l 0,13.2 6.8,0 c 2.1,0 3.2,1 3.2,2.8 l 0,0.1 c 0,2 -1,3 -3.2,3 l -13.7,0 0,-19.1 z"
         id="path3343"
         style="fill:#ffffff;fill-opacity:1" /><path
         inkscape:connector-curvature="0"
         d="m 96.3,60.2 0,-18.4 c 0,-2.5 1.2,-3.8 3.5,-3.8 l 14.8,0 0,5.9 -11.5,0 0,2.3 8.6,0 0,5.5 -8.6,0 0,2.7 11.5,0 0,5.8 -18.3,0 z"
         id="path3345"
         style="fill:#ffffff;fill-opacity:1" /><path
         inkscape:connector-curvature="0"
         d="m 116,55.6 c 0,-1.6 2.1,-3.4 2.3,-3.3 1.4,1.3 4.2,2.6 6.6,2.6 2.1,0 3.1,-0.6 3.1,-1.7 0,-1.4 -1.8,-1.4 -4,-1.9 -3.7,-0.8 -7.4,-2.3 -7.4,-6.9 0,-4.6 3.4,-7.4 9.5,-7.4 5.8,0 8.4,2 8.4,4.2 0,1.9 -2.3,3.6 -2.4,3.4 -1.5,-1.4 -3.8,-2.4 -5.9,-2.4 -2,0 -3,0.6 -3,1.7 0,1.3 1.8,1.2 4.1,1.7 4.4,1 7.7,2.8 7.7,6.9 0,4.8 -3.3,7.5 -10,7.5 -6.7,0.2 -9,-2.1 -9,-4.4 z"
         id="path3347"
         style="fill:#ffffff;fill-opacity:1" /><path
         inkscape:connector-curvature="0"
         d="m 152.3,44.9 c 3.3,0 5.2,1.6 5.2,3.8 0,2.9 -1.9,4.6 -8.4,4.6 -1.1,0 -2.3,-0.1 -3.8,-0.2 0,0.3 0,0.6 0,0.9 0,2.6 1.5,4.3 4.4,4.3 2.3,0 3.7,-0.8 4.9,-2.4 0.1,-0.1 1,0.2 1,0.9 0,0.5 -0.2,0.8 -0.7,1.3 -1.3,1.3 -3,1.9 -5.3,1.9 -4.1,0 -6.3,-2.5 -6.3,-5.9 -0.1,-5.1 3.8,-9.2 9,-9.2 z m -3.4,6.8 c 5.2,0 6.6,-1.4 6.6,-2.9 0,-1.1 -1.1,-2.1 -3.3,-2.1 -3,0 -5.6,2.1 -6.6,4.9 1.3,0.1 2.3,0.1 3.3,0.1 z"
         id="path3349"
         style="fill:#ffffff;fill-opacity:1" /><path
         inkscape:connector-curvature="0"
         d="m 158,57.5 5.1,-5 -3.8,-7.3 2.3,0 2.9,6.2 6.4,-6.5 c 0.1,-0.1 2.3,0.4 0.2,2.5 l -5.5,5.5 1.5,2.8 c 1.1,2.2 1.7,2.4 3.2,2.5 0.1,0 0.2,1.6 -1.3,1.6 -1.5,0 -2.3,-0.7 -3.9,-4 l -0.9,-1.9 -5.9,6 c -0.1,0.1 -2.4,-0.3 -0.3,-2.4 z"
         id="path3351"
         style="fill:#ffffff;fill-opacity:1" /><path
         inkscape:connector-curvature="0"
         d="m 173.4,65.7 -2,0 4.4,-20.4 c 0,0 0.2,-0.1 0.4,-0.1 0.8,0 1.4,0.4 1.1,2.1 l -0.1,0.4 c 1.3,-1.7 3,-2.7 5.3,-2.7 3.1,0 6,2.2 6,6.4 0,4.5 -3.2,8.8 -7.9,8.8 -2.7,0 -4.5,-1.6 -5.3,-3.1 l -1.9,8.6 z m 7.3,-7.3 c 3.7,0 5.8,-3.6 5.8,-7.1 0,-3 -2,-4.7 -4.2,-4.7 -2.3,0 -4.5,1.5 -5.6,3.7 l -0.6,2.7 c -0.5,2.8 1.3,5.4 4.6,5.4 z"
         id="path3353"
         style="fill:#ffffff;fill-opacity:1" /><path
         inkscape:connector-curvature="0"
         d="m 193.6,45.3 c 0,0 0.2,-0.1 0.4,-0.1 0.8,0 1.4,0.4 1.1,2.1 l -0.1,0.6 c 1,-1.9 2.3,-2.9 4.1,-2.9 1.1,0 2.1,0.5 2.1,1.4 0,1 -0.7,1.4 -0.8,1.3 -0.4,-0.4 -1,-0.8 -1.9,-0.8 -2.3,0 -3.9,3 -4.8,7.1 l -1.2,5.9 -2,0 3.1,-14.6 z"
         id="path3355"
         style="fill:#ffffff;fill-opacity:1" /><path
         inkscape:connector-curvature="0"
         d="m 210.9,44.9 c 3.3,0 5.2,1.6 5.2,3.8 0,2.9 -1.9,4.6 -8.4,4.6 -1.1,0 -2.3,-0.1 -3.8,-0.2 0,0.3 0,0.6 0,0.9 0,2.6 1.5,4.3 4.4,4.3 2.3,0 3.7,-0.8 4.9,-2.4 0.1,-0.1 1,0.2 1,0.9 0,0.5 -0.2,0.8 -0.7,1.3 -1.3,1.3 -3,1.9 -5.3,1.9 -4.1,0 -6.3,-2.5 -6.3,-5.9 -0.1,-5.1 3.8,-9.2 9,-9.2 z m -3.4,6.8 c 5.2,0 6.6,-1.4 6.6,-2.9 0,-1.1 -1.1,-2.1 -3.3,-2.1 -3,0 -5.6,2.1 -6.6,4.9 1.2,0.1 2.3,0.1 3.3,0.1 z"
         id="path3357"
         style="fill:#ffffff;fill-opacity:1" /><path
         inkscape:connector-curvature="0"
         d="m 217,56.9 c 0,-0.9 1,-1.2 1.1,-1.2 0.9,1.5 2.7,2.7 5.2,2.7 2.3,0 3.5,-1 3.5,-2.5 0,-1.3 -1.3,-1.9 -3.5,-2.6 -2.1,-0.7 -4.4,-1.6 -4.4,-4.2 0,-2.5 2.3,-4.3 5.4,-4.3 2.2,0 3.9,0.8 4.8,1.7 0.5,0.5 0.7,1 0.7,1.5 0,0.9 -1.1,1.2 -1.2,1 -0.8,-1.5 -2.5,-2.5 -4.5,-2.5 -2.2,0 -3.4,1.2 -3.4,2.4 0,1.4 1.5,2 3.6,2.8 2.1,0.7 4.3,1.6 4.3,4 0,2.7 -2.1,4.4 -5.6,4.4 -2.4,0 -4.3,-0.8 -5.4,-1.9 -0.3,-0.4 -0.6,-0.8 -0.6,-1.3 z"
         id="path3359"
         style="fill:#ffffff;fill-opacity:1" /><path
         inkscape:connector-curvature="0"
         d="m 231.2,56.9 c 0,-0.9 1,-1.2 1.1,-1.2 0.9,1.5 2.7,2.7 5.2,2.7 2.3,0 3.5,-1 3.5,-2.5 0,-1.3 -1.3,-1.9 -3.5,-2.6 -2.1,-0.7 -4.4,-1.6 -4.4,-4.2 0,-2.5 2.3,-4.3 5.4,-4.3 2.2,0 3.9,0.8 4.8,1.7 0.5,0.5 0.7,1 0.7,1.5 0,0.9 -1.1,1.2 -1.2,1 -0.8,-1.5 -2.5,-2.5 -4.5,-2.5 -2.2,0 -3.4,1.2 -3.4,2.4 0,1.4 1.5,2 3.6,2.8 2.1,0.7 4.3,1.6 4.3,4 0,2.7 -2.1,4.4 -5.6,4.4 -2.4,0 -4.3,-0.8 -5.4,-1.9 -0.3,-0.4 -0.6,-0.8 -0.6,-1.3 z"
         id="path3361"
         style="fill:#ffffff;fill-opacity:1" /></g></g></svg>